<svg width="281" height="140" viewBox="0 0 281 140" fill="none" xmlns="http://www.w3.org/2000/svg">
<path d="M209.097 139C171.992 139 142 108.941 142 69.5C142 30.4422 171.607 0 213.134 0C244.472 0 265.62 15.3168 276.001 37.7176L249.663 51.6942C243.703 37.3347 230.437 28.719 213.134 28.719C191.217 28.719 172.761 44.8017 172.761 69.5C172.761 94.5813 191.217 110.281 212.75 110.281C228.899 110.281 244.087 102.814 250.047 87.8802H214.095V62.033H281V136.511H250.239V119.854H246.394C240.434 131.15 228.322 139 209.097 139Z" fill="url(#paint0_linear_59_103)"/>
<path d="M49.6795 139.103L33.782 27.2244H29.8077V139.103H0V0H59.6154L75.5128 111.878H79.0897L95.3846 0H155V139.103H125.192V27.2244H121.218L105.321 139.103H49.6795Z" fill="white"/>
<defs>
<linearGradient id="paint0_linear_59_103" x1="246" y1="64.5" x2="128" y2="72.5" gradientUnits="userSpaceOnUse">
<stop stop-color="#732CDC"/>
<stop offset="1" stop-color="#A251F4"/>
</linearGradient>
</defs>
</svg>
