<svg xmlns="http://www.w3.org/2000/svg" width="300" height="300"><defs><linearGradient id="a" x1="74.82%" x2="-10.072%" y1="46.427%" y2="52.144%"><stop offset="0%" stop-color="#732CDC"/><stop offset="100%" stop-color="#A251F4"/></linearGradient></defs><g fill="none" fill-rule="evenodd"><circle cx="150" cy="150" r="150" fill="#030712"/><g fill-rule="nonzero"><path fill="url(#a)" d="M167.426 110.918c-29.71 0-53.725-23.986-53.725-55.46C113.701 24.293 137.408 0 170.66 0c25.093 0 42.026 12.222 50.338 30.098L199.908 41.25c-4.772-11.458-15.394-18.333-29.25-18.333-17.548 0-32.326 12.833-32.326 32.542 0 20.014 14.778 32.542 32.02 32.542 12.93 0 25.091-5.959 29.864-17.875h-28.788V49.5H225v59.432h-24.63V95.64h-3.08c-4.772 9.014-14.47 15.278-29.864 15.278Z" transform="translate(37 94)"/><path fill="#FFF" d="M76.779 205 64.05 115.724h-3.183V205H37V94h47.735l12.729 89.275h2.864L113.376 94h47.734v111h-23.867v-89.276h-3.182L121.332 205z"/></g></g></svg>