<?xml version="1.0" encoding="UTF-8"?>
<svg width="200px" height="200px" viewBox="0 0 200 200" version="1.1" xmlns="http://www.w3.org/2000/svg" xmlns:xlink="http://www.w3.org/1999/xlink">
    <title>Artboard</title>
    <g id="Artboard" stroke="none" stroke-width="1" fill="none" fill-rule="evenodd">
        <g id="MG" transform="translate(13, 60)" fill="#FFFFFF" fill-rule="nonzero">
            <polygon id="Path" points="29.292843 78.5674931 54.9652223 78.5674931 68.2402561 13.8842975 70.4344765 13.8842975 70.4344765 78.5674931 84.2580654 78.5674931 84.2580654 1.43250689 56.6108877 1.43250689 43.0067209 66.1157025 40.9222114 66.1157025 27.6471777 1.43250689 0 1.43250689 0 78.5674931 13.8235888 78.5674931 13.8235888 13.8842975 16.0178093 13.8842975"></polygon>
            <path d="M134.736055,80 C146.584845,80 154.813172,75.0413223 158.214214,66.5564738 L160.408434,66.5564738 L160.408434,78.5674931 L175,78.5674931 L175,36.0330579 L137.588541,36.0330579 L137.588541,48.7052342 L160.408434,48.7052342 C158.214214,59.2837466 148.23051,66.2258953 136.820564,66.2258953 C122.667842,66.2258953 111.806451,55.7575758 111.806451,40 C111.806451,24.4628099 122.887264,13.7741047 137.039986,13.7741047 C148.120799,13.7741047 156.019993,19.6143251 159.530746,27.6584022 L172.037802,20.8264463 C166.223118,8.70523416 154.374328,0 137.039986,0 C113.89096,0 97.105174,17.4104683 97.105174,40 C97.105174,62.8099174 113.561827,80 134.736055,80 Z" id="Path"></path>
        </g>
    </g>
</svg>